<mxfile host="app.diagrams.net" agent="Mozilla/5.0 (Windows NT 10.0; Win64; x64) AppleWebKit/537.36 (KHTML, like Gecko) Chrome/128.0.0.0 Safari/537.36" version="24.7.13" pages="2">
  <diagram name="componentes" id="vToDBYW3dY85GaOzI8v0">
    <mxGraphModel dx="1444" dy="1925" grid="1" gridSize="10" guides="1" tooltips="1" connect="1" arrows="1" fold="1" page="1" pageScale="1" pageWidth="850" pageHeight="1100" math="0" shadow="0">
      <root>
        <mxCell id="0" />
        <mxCell id="1" parent="0" />
        <mxCell id="afrJlC_VY8LgOHWlsY2c-15" value="" style="rounded=0;whiteSpace=wrap;html=1;" vertex="1" parent="1">
          <mxGeometry x="10" y="-160" width="600" height="610" as="geometry" />
        </mxCell>
        <mxCell id="afrJlC_VY8LgOHWlsY2c-14" value="" style="edgeStyle=orthogonalEdgeStyle;rounded=0;orthogonalLoop=1;jettySize=auto;html=1;dashed=1;" edge="1" parent="1" source="afrJlC_VY8LgOHWlsY2c-1" target="afrJlC_VY8LgOHWlsY2c-3">
          <mxGeometry relative="1" as="geometry" />
        </mxCell>
        <mxCell id="afrJlC_VY8LgOHWlsY2c-1" value="UserController" style="html=1;dropTarget=0;whiteSpace=wrap;" vertex="1" parent="1">
          <mxGeometry x="110" y="-110" width="180" height="90" as="geometry" />
        </mxCell>
        <mxCell id="afrJlC_VY8LgOHWlsY2c-2" value="" style="shape=module;jettyWidth=8;jettyHeight=4;" vertex="1" parent="afrJlC_VY8LgOHWlsY2c-1">
          <mxGeometry x="1" width="20" height="20" relative="1" as="geometry">
            <mxPoint x="-27" y="7" as="offset" />
          </mxGeometry>
        </mxCell>
        <mxCell id="afrJlC_VY8LgOHWlsY2c-11" value="" style="edgeStyle=orthogonalEdgeStyle;rounded=0;orthogonalLoop=1;jettySize=auto;html=1;dashed=1;" edge="1" parent="1" source="afrJlC_VY8LgOHWlsY2c-3" target="afrJlC_VY8LgOHWlsY2c-5">
          <mxGeometry relative="1" as="geometry" />
        </mxCell>
        <mxCell id="afrJlC_VY8LgOHWlsY2c-13" style="edgeStyle=orthogonalEdgeStyle;rounded=0;orthogonalLoop=1;jettySize=auto;html=1;dashed=1;" edge="1" parent="1" source="afrJlC_VY8LgOHWlsY2c-3" target="afrJlC_VY8LgOHWlsY2c-7">
          <mxGeometry relative="1" as="geometry" />
        </mxCell>
        <mxCell id="afrJlC_VY8LgOHWlsY2c-3" value="UserService" style="html=1;dropTarget=0;whiteSpace=wrap;" vertex="1" parent="1">
          <mxGeometry x="110" y="40" width="180" height="90" as="geometry" />
        </mxCell>
        <mxCell id="afrJlC_VY8LgOHWlsY2c-4" value="" style="shape=module;jettyWidth=8;jettyHeight=4;" vertex="1" parent="afrJlC_VY8LgOHWlsY2c-3">
          <mxGeometry x="1" width="20" height="20" relative="1" as="geometry">
            <mxPoint x="-27" y="7" as="offset" />
          </mxGeometry>
        </mxCell>
        <mxCell id="afrJlC_VY8LgOHWlsY2c-12" style="edgeStyle=orthogonalEdgeStyle;rounded=0;orthogonalLoop=1;jettySize=auto;html=1;dashed=1;" edge="1" parent="1" source="afrJlC_VY8LgOHWlsY2c-5" target="afrJlC_VY8LgOHWlsY2c-9">
          <mxGeometry relative="1" as="geometry" />
        </mxCell>
        <mxCell id="afrJlC_VY8LgOHWlsY2c-5" value="UserRepository" style="html=1;dropTarget=0;whiteSpace=wrap;" vertex="1" parent="1">
          <mxGeometry x="110" y="190" width="180" height="90" as="geometry" />
        </mxCell>
        <mxCell id="afrJlC_VY8LgOHWlsY2c-6" value="" style="shape=module;jettyWidth=8;jettyHeight=4;" vertex="1" parent="afrJlC_VY8LgOHWlsY2c-5">
          <mxGeometry x="1" width="20" height="20" relative="1" as="geometry">
            <mxPoint x="-27" y="7" as="offset" />
          </mxGeometry>
        </mxCell>
        <mxCell id="afrJlC_VY8LgOHWlsY2c-7" value="Util" style="html=1;dropTarget=0;whiteSpace=wrap;" vertex="1" parent="1">
          <mxGeometry x="335" y="190" width="180" height="90" as="geometry" />
        </mxCell>
        <mxCell id="afrJlC_VY8LgOHWlsY2c-8" value="" style="shape=module;jettyWidth=8;jettyHeight=4;" vertex="1" parent="afrJlC_VY8LgOHWlsY2c-7">
          <mxGeometry x="1" width="20" height="20" relative="1" as="geometry">
            <mxPoint x="-27" y="7" as="offset" />
          </mxGeometry>
        </mxCell>
        <mxCell id="afrJlC_VY8LgOHWlsY2c-9" value="Models" style="html=1;dropTarget=0;whiteSpace=wrap;" vertex="1" parent="1">
          <mxGeometry x="110" y="330" width="180" height="90" as="geometry" />
        </mxCell>
        <mxCell id="afrJlC_VY8LgOHWlsY2c-10" value="" style="shape=module;jettyWidth=8;jettyHeight=4;" vertex="1" parent="afrJlC_VY8LgOHWlsY2c-9">
          <mxGeometry x="1" width="20" height="20" relative="1" as="geometry">
            <mxPoint x="-27" y="7" as="offset" />
          </mxGeometry>
        </mxCell>
        <mxCell id="afrJlC_VY8LgOHWlsY2c-16" value="Msusers" style="text;html=1;align=center;verticalAlign=middle;whiteSpace=wrap;rounded=0;" vertex="1" parent="1">
          <mxGeometry x="20" y="-150" width="60" height="30" as="geometry" />
        </mxCell>
      </root>
    </mxGraphModel>
  </diagram>
  <diagram id="_HNW6lCP_iFYoflSAd2y" name="secuencia">
    <mxGraphModel dx="1434" dy="814" grid="1" gridSize="10" guides="1" tooltips="1" connect="1" arrows="1" fold="1" page="1" pageScale="1" pageWidth="850" pageHeight="1100" math="0" shadow="0">
      <root>
        <mxCell id="0" />
        <mxCell id="1" parent="0" />
        <mxCell id="metZaBWdzeH2bf7Q1Adg-1" value="Actor" style="shape=umlActor;verticalLabelPosition=bottom;verticalAlign=top;html=1;outlineConnect=0;" parent="1" vertex="1">
          <mxGeometry x="95" y="170" width="30" height="60" as="geometry" />
        </mxCell>
        <mxCell id="metZaBWdzeH2bf7Q1Adg-2" value="msusers" style="rounded=1;whiteSpace=wrap;html=1;" parent="1" vertex="1">
          <mxGeometry x="250" y="170" width="120" height="60" as="geometry" />
        </mxCell>
        <mxCell id="metZaBWdzeH2bf7Q1Adg-3" value="H2" style="rounded=1;whiteSpace=wrap;html=1;" parent="1" vertex="1">
          <mxGeometry x="450" y="170" width="120" height="60" as="geometry" />
        </mxCell>
        <mxCell id="metZaBWdzeH2bf7Q1Adg-7" value="" style="endArrow=none;html=1;rounded=0;" parent="1" target="metZaBWdzeH2bf7Q1Adg-1" edge="1">
          <mxGeometry width="50" height="50" relative="1" as="geometry">
            <mxPoint x="110" y="510" as="sourcePoint" />
            <mxPoint x="110" y="260" as="targetPoint" />
          </mxGeometry>
        </mxCell>
        <mxCell id="metZaBWdzeH2bf7Q1Adg-8" value="" style="endArrow=none;html=1;rounded=0;" parent="1" edge="1">
          <mxGeometry width="50" height="50" relative="1" as="geometry">
            <mxPoint x="310" y="510" as="sourcePoint" />
            <mxPoint x="310" y="230" as="targetPoint" />
          </mxGeometry>
        </mxCell>
        <mxCell id="metZaBWdzeH2bf7Q1Adg-9" value="" style="endArrow=none;html=1;rounded=0;" parent="1" edge="1">
          <mxGeometry width="50" height="50" relative="1" as="geometry">
            <mxPoint x="510" y="510" as="sourcePoint" />
            <mxPoint x="510" y="230" as="targetPoint" />
          </mxGeometry>
        </mxCell>
        <mxCell id="metZaBWdzeH2bf7Q1Adg-10" value="Signup" style="text;html=1;align=center;verticalAlign=middle;whiteSpace=wrap;rounded=0;fontStyle=1" parent="1" vertex="1">
          <mxGeometry x="50" y="120" width="100" height="30" as="geometry" />
        </mxCell>
        <mxCell id="metZaBWdzeH2bf7Q1Adg-11" value="" style="endArrow=classic;html=1;rounded=0;" parent="1" edge="1">
          <mxGeometry width="50" height="50" relative="1" as="geometry">
            <mxPoint x="110" y="270" as="sourcePoint" />
            <mxPoint x="310" y="270" as="targetPoint" />
          </mxGeometry>
        </mxCell>
        <mxCell id="metZaBWdzeH2bf7Q1Adg-12" value="" style="endArrow=classic;html=1;rounded=0;" parent="1" edge="1">
          <mxGeometry width="50" height="50" relative="1" as="geometry">
            <mxPoint x="310" y="290" as="sourcePoint" />
            <mxPoint x="310" y="320" as="targetPoint" />
            <Array as="points">
              <mxPoint x="360" y="290" />
              <mxPoint x="360" y="320" />
            </Array>
          </mxGeometry>
        </mxCell>
        <mxCell id="metZaBWdzeH2bf7Q1Adg-13" value="" style="endArrow=classic;html=1;rounded=0;" parent="1" edge="1">
          <mxGeometry width="50" height="50" relative="1" as="geometry">
            <mxPoint x="310" y="350" as="sourcePoint" />
            <mxPoint x="510" y="350" as="targetPoint" />
          </mxGeometry>
        </mxCell>
        <mxCell id="metZaBWdzeH2bf7Q1Adg-14" value="" style="endArrow=none;html=1;rounded=0;startArrow=classic;startFill=1;endFill=0;" parent="1" edge="1">
          <mxGeometry width="50" height="50" relative="1" as="geometry">
            <mxPoint x="310" y="380" as="sourcePoint" />
            <mxPoint x="510" y="380" as="targetPoint" />
          </mxGeometry>
        </mxCell>
        <mxCell id="metZaBWdzeH2bf7Q1Adg-23" value="Se retorna usuario o vacio" style="edgeLabel;html=1;align=center;verticalAlign=middle;resizable=0;points=[];fontSize=12;" parent="metZaBWdzeH2bf7Q1Adg-14" vertex="1" connectable="0">
          <mxGeometry x="-0.2333" y="-5" relative="1" as="geometry">
            <mxPoint x="23" y="5" as="offset" />
          </mxGeometry>
        </mxCell>
        <mxCell id="metZaBWdzeH2bf7Q1Adg-15" value="" style="endArrow=classic;html=1;rounded=0;" parent="1" edge="1">
          <mxGeometry width="50" height="50" relative="1" as="geometry">
            <mxPoint x="310" y="410" as="sourcePoint" />
            <mxPoint x="310" y="440" as="targetPoint" />
            <Array as="points">
              <mxPoint x="360" y="410" />
              <mxPoint x="360" y="440" />
            </Array>
          </mxGeometry>
        </mxCell>
        <mxCell id="metZaBWdzeH2bf7Q1Adg-16" value="" style="endArrow=classic;html=1;rounded=0;" parent="1" edge="1">
          <mxGeometry width="50" height="50" relative="1" as="geometry">
            <mxPoint x="310" y="465" as="sourcePoint" />
            <mxPoint x="510" y="465" as="targetPoint" />
          </mxGeometry>
        </mxCell>
        <mxCell id="metZaBWdzeH2bf7Q1Adg-17" value="" style="endArrow=none;html=1;rounded=0;startArrow=classic;startFill=1;endFill=0;" parent="1" edge="1">
          <mxGeometry width="50" height="50" relative="1" as="geometry">
            <mxPoint x="310" y="490" as="sourcePoint" />
            <mxPoint x="510" y="490" as="targetPoint" />
          </mxGeometry>
        </mxCell>
        <mxCell id="metZaBWdzeH2bf7Q1Adg-27" value="Se retorna el usuario guardado" style="edgeLabel;html=1;align=center;verticalAlign=middle;resizable=0;points=[];fontSize=12;" parent="metZaBWdzeH2bf7Q1Adg-17" vertex="1" connectable="0">
          <mxGeometry x="0.3067" y="-2" relative="1" as="geometry">
            <mxPoint x="-21" y="8" as="offset" />
          </mxGeometry>
        </mxCell>
        <mxCell id="metZaBWdzeH2bf7Q1Adg-18" value="" style="endArrow=none;html=1;rounded=0;startArrow=classic;startFill=1;endFill=0;fillColor=#d5e8d4;strokeColor=#82b366;dashed=1;" parent="1" edge="1">
          <mxGeometry width="50" height="50" relative="1" as="geometry">
            <mxPoint x="110" y="500" as="sourcePoint" />
            <mxPoint x="310" y="500" as="targetPoint" />
          </mxGeometry>
        </mxCell>
        <mxCell id="metZaBWdzeH2bf7Q1Adg-28" value="Se retorna 201 y datos de usuario" style="edgeLabel;html=1;align=center;verticalAlign=middle;resizable=0;points=[];fontSize=12;fontColor=#009900;" parent="metZaBWdzeH2bf7Q1Adg-18" vertex="1" connectable="0">
          <mxGeometry x="0.3667" y="1" relative="1" as="geometry">
            <mxPoint x="-37" y="11" as="offset" />
          </mxGeometry>
        </mxCell>
        <mxCell id="metZaBWdzeH2bf7Q1Adg-20" value="Registrar usuario" style="text;html=1;align=center;verticalAlign=middle;whiteSpace=wrap;rounded=0;" parent="1" vertex="1">
          <mxGeometry x="155" y="240" width="100" height="30" as="geometry" />
        </mxCell>
        <mxCell id="metZaBWdzeH2bf7Q1Adg-21" value="Validar datos" style="text;html=1;align=center;verticalAlign=middle;whiteSpace=wrap;rounded=0;" parent="1" vertex="1">
          <mxGeometry x="360" y="290" width="60" height="30" as="geometry" />
        </mxCell>
        <mxCell id="metZaBWdzeH2bf7Q1Adg-22" value="Chequear usuario registrado/email" style="text;html=1;align=center;verticalAlign=middle;whiteSpace=wrap;rounded=0;" parent="1" vertex="1">
          <mxGeometry x="350" y="335" width="140" height="30" as="geometry" />
        </mxCell>
        <mxCell id="metZaBWdzeH2bf7Q1Adg-24" value="Mapeo de datos" style="text;html=1;align=center;verticalAlign=middle;whiteSpace=wrap;rounded=0;" parent="1" vertex="1">
          <mxGeometry x="350" y="410" width="80" height="30" as="geometry" />
        </mxCell>
        <mxCell id="metZaBWdzeH2bf7Q1Adg-25" value="Se guarda datos de usuario" style="text;html=1;align=center;verticalAlign=middle;whiteSpace=wrap;rounded=0;" parent="1" vertex="1">
          <mxGeometry x="335" y="443" width="170" height="30" as="geometry" />
        </mxCell>
        <mxCell id="metZaBWdzeH2bf7Q1Adg-44" value="" style="endArrow=none;html=1;rounded=0;startArrow=classic;startFill=1;endFill=0;dashed=1;fillColor=#f8cecc;strokeColor=#b85450;" parent="1" edge="1">
          <mxGeometry width="50" height="50" relative="1" as="geometry">
            <mxPoint x="110" y="340" as="sourcePoint" />
            <mxPoint x="310" y="340" as="targetPoint" />
          </mxGeometry>
        </mxCell>
        <mxCell id="metZaBWdzeH2bf7Q1Adg-52" value="&lt;span style=&quot;text-wrap: nowrap; background-color: rgb(255, 255, 255);&quot;&gt;&lt;font color=&quot;#ff0000&quot;&gt;Se retorna 409 y error&amp;nbsp;&lt;/font&gt;&lt;/span&gt;&lt;div&gt;&lt;span style=&quot;text-wrap: nowrap; background-color: rgb(255, 255, 255);&quot;&gt;&lt;font color=&quot;#ff0000&quot;&gt;de validacion de datos&lt;/font&gt;&lt;/span&gt;&lt;/div&gt;" style="text;html=1;align=center;verticalAlign=middle;whiteSpace=wrap;rounded=0;" parent="1" vertex="1">
          <mxGeometry x="167.5" y="340" width="75" height="30" as="geometry" />
        </mxCell>
        <mxCell id="metZaBWdzeH2bf7Q1Adg-76" value="&lt;span style=&quot;text-wrap: nowrap; background-color: rgb(255, 255, 255);&quot;&gt;Se retorna codigo 409&amp;nbsp;&lt;/span&gt;&lt;div&gt;&lt;span style=&quot;text-wrap: nowrap; background-color: rgb(255, 255, 255);&quot;&gt;y error informando&lt;/span&gt;&lt;/div&gt;&lt;div&gt;&lt;span style=&quot;text-wrap: nowrap; background-color: rgb(255, 255, 255);&quot;&gt;&amp;nbsp;que el email ya existe&lt;/span&gt;&lt;/div&gt;" style="text;html=1;align=center;verticalAlign=middle;whiteSpace=wrap;rounded=0;fontColor=#FF3333;" parent="1" vertex="1">
          <mxGeometry x="165" y="410" width="75" height="30" as="geometry" />
        </mxCell>
        <mxCell id="metZaBWdzeH2bf7Q1Adg-101" value="Actor" style="shape=umlActor;verticalLabelPosition=bottom;verticalAlign=top;html=1;outlineConnect=0;" parent="1" vertex="1">
          <mxGeometry x="765" y="170" width="30" height="60" as="geometry" />
        </mxCell>
        <mxCell id="metZaBWdzeH2bf7Q1Adg-102" value="msusers" style="rounded=1;whiteSpace=wrap;html=1;" parent="1" vertex="1">
          <mxGeometry x="920" y="170" width="120" height="60" as="geometry" />
        </mxCell>
        <mxCell id="metZaBWdzeH2bf7Q1Adg-103" value="H2" style="rounded=1;whiteSpace=wrap;html=1;" parent="1" vertex="1">
          <mxGeometry x="1120" y="170" width="120" height="60" as="geometry" />
        </mxCell>
        <mxCell id="metZaBWdzeH2bf7Q1Adg-104" value="" style="endArrow=none;html=1;rounded=0;" parent="1" target="metZaBWdzeH2bf7Q1Adg-101" edge="1">
          <mxGeometry width="50" height="50" relative="1" as="geometry">
            <mxPoint x="780" y="510" as="sourcePoint" />
            <mxPoint x="780" y="260" as="targetPoint" />
          </mxGeometry>
        </mxCell>
        <mxCell id="metZaBWdzeH2bf7Q1Adg-105" value="" style="endArrow=none;html=1;rounded=0;" parent="1" edge="1">
          <mxGeometry width="50" height="50" relative="1" as="geometry">
            <mxPoint x="980" y="510" as="sourcePoint" />
            <mxPoint x="980" y="230" as="targetPoint" />
          </mxGeometry>
        </mxCell>
        <mxCell id="metZaBWdzeH2bf7Q1Adg-106" value="" style="endArrow=none;html=1;rounded=0;" parent="1" edge="1">
          <mxGeometry width="50" height="50" relative="1" as="geometry">
            <mxPoint x="1180" y="510" as="sourcePoint" />
            <mxPoint x="1180" y="230" as="targetPoint" />
          </mxGeometry>
        </mxCell>
        <mxCell id="metZaBWdzeH2bf7Q1Adg-107" value="Login" style="text;html=1;align=center;verticalAlign=middle;whiteSpace=wrap;rounded=0;fontStyle=1" parent="1" vertex="1">
          <mxGeometry x="720" y="120" width="100" height="30" as="geometry" />
        </mxCell>
        <mxCell id="metZaBWdzeH2bf7Q1Adg-108" value="" style="endArrow=classic;html=1;rounded=0;" parent="1" edge="1">
          <mxGeometry width="50" height="50" relative="1" as="geometry">
            <mxPoint x="780" y="270" as="sourcePoint" />
            <mxPoint x="980" y="270" as="targetPoint" />
          </mxGeometry>
        </mxCell>
        <mxCell id="metZaBWdzeH2bf7Q1Adg-109" value="" style="endArrow=classic;html=1;rounded=0;" parent="1" edge="1">
          <mxGeometry width="50" height="50" relative="1" as="geometry">
            <mxPoint x="980" y="290" as="sourcePoint" />
            <mxPoint x="980" y="320" as="targetPoint" />
            <Array as="points">
              <mxPoint x="1030" y="290" />
              <mxPoint x="1030" y="320" />
            </Array>
          </mxGeometry>
        </mxCell>
        <mxCell id="metZaBWdzeH2bf7Q1Adg-110" value="" style="endArrow=classic;html=1;rounded=0;" parent="1" edge="1">
          <mxGeometry width="50" height="50" relative="1" as="geometry">
            <mxPoint x="980" y="350" as="sourcePoint" />
            <mxPoint x="1180" y="350" as="targetPoint" />
          </mxGeometry>
        </mxCell>
        <mxCell id="metZaBWdzeH2bf7Q1Adg-111" value="" style="endArrow=none;html=1;rounded=0;startArrow=classic;startFill=1;endFill=0;" parent="1" edge="1">
          <mxGeometry width="50" height="50" relative="1" as="geometry">
            <mxPoint x="980" y="380" as="sourcePoint" />
            <mxPoint x="1180" y="380" as="targetPoint" />
          </mxGeometry>
        </mxCell>
        <mxCell id="metZaBWdzeH2bf7Q1Adg-112" value="Retorna datos del usuario" style="edgeLabel;html=1;align=center;verticalAlign=middle;resizable=0;points=[];fontSize=12;" parent="metZaBWdzeH2bf7Q1Adg-111" vertex="1" connectable="0">
          <mxGeometry x="-0.2333" y="-5" relative="1" as="geometry">
            <mxPoint x="23" y="5" as="offset" />
          </mxGeometry>
        </mxCell>
        <mxCell id="metZaBWdzeH2bf7Q1Adg-113" value="" style="endArrow=classic;html=1;rounded=0;" parent="1" edge="1">
          <mxGeometry width="50" height="50" relative="1" as="geometry">
            <mxPoint x="980" y="410" as="sourcePoint" />
            <mxPoint x="980" y="440" as="targetPoint" />
            <Array as="points">
              <mxPoint x="1030" y="410" />
              <mxPoint x="1030" y="440" />
            </Array>
          </mxGeometry>
        </mxCell>
        <mxCell id="metZaBWdzeH2bf7Q1Adg-117" value="" style="endArrow=none;html=1;rounded=0;startArrow=classic;startFill=1;endFill=0;fillColor=#d5e8d4;strokeColor=#82b366;dashed=1;" parent="1" edge="1">
          <mxGeometry width="50" height="50" relative="1" as="geometry">
            <mxPoint x="780" y="454.5" as="sourcePoint" />
            <mxPoint x="980" y="454.5" as="targetPoint" />
          </mxGeometry>
        </mxCell>
        <mxCell id="metZaBWdzeH2bf7Q1Adg-118" value="Retorna 200 y rta de login" style="edgeLabel;html=1;align=center;verticalAlign=middle;resizable=0;points=[];fontSize=12;fontColor=#009900;" parent="metZaBWdzeH2bf7Q1Adg-117" vertex="1" connectable="0">
          <mxGeometry x="0.3667" y="1" relative="1" as="geometry">
            <mxPoint x="-27" y="11" as="offset" />
          </mxGeometry>
        </mxCell>
        <mxCell id="metZaBWdzeH2bf7Q1Adg-119" value="&lt;div&gt;Se envia el header Authorization&lt;/div&gt;" style="text;html=1;align=center;verticalAlign=middle;whiteSpace=wrap;rounded=0;" parent="1" vertex="1">
          <mxGeometry x="840" y="250" width="70" height="30" as="geometry" />
        </mxCell>
        <mxCell id="metZaBWdzeH2bf7Q1Adg-120" value="Desencriptar el token" style="text;html=1;align=center;verticalAlign=middle;whiteSpace=wrap;rounded=0;" parent="1" vertex="1">
          <mxGeometry x="1040" y="290" width="60" height="30" as="geometry" />
        </mxCell>
        <mxCell id="metZaBWdzeH2bf7Q1Adg-121" value="Se busca el usuario con el email" style="text;html=1;align=center;verticalAlign=middle;whiteSpace=wrap;rounded=0;" parent="1" vertex="1">
          <mxGeometry x="1018" y="334" width="130" height="30" as="geometry" />
        </mxCell>
        <mxCell id="metZaBWdzeH2bf7Q1Adg-122" value="Se mapean los datos" style="text;html=1;align=center;verticalAlign=middle;whiteSpace=wrap;rounded=0;" parent="1" vertex="1">
          <mxGeometry x="1021" y="410" width="80" height="30" as="geometry" />
        </mxCell>
        <mxCell id="metZaBWdzeH2bf7Q1Adg-137" value="" style="endArrow=none;html=1;rounded=0;startArrow=classic;startFill=1;endFill=0;fillColor=#f8cecc;strokeColor=#b85450;dashed=1;" parent="1" edge="1">
          <mxGeometry width="50" height="50" relative="1" as="geometry">
            <mxPoint x="779" y="335" as="sourcePoint" />
            <mxPoint x="979" y="335" as="targetPoint" />
          </mxGeometry>
        </mxCell>
        <mxCell id="metZaBWdzeH2bf7Q1Adg-138" value="Retorna 409 y&amp;nbsp;&lt;div&gt;error de token invalido&lt;/div&gt;" style="edgeLabel;html=1;align=center;verticalAlign=middle;resizable=0;points=[];fontSize=12;" parent="metZaBWdzeH2bf7Q1Adg-137" vertex="1" connectable="0">
          <mxGeometry x="0.3667" y="1" relative="1" as="geometry">
            <mxPoint x="-27" y="21" as="offset" />
          </mxGeometry>
        </mxCell>
        <mxCell id="1n4XgotdrLuCl6wgnlrv-1" value="" style="endArrow=none;html=1;rounded=0;startArrow=classic;startFill=1;endFill=0;fillColor=#f8cecc;strokeColor=#b85450;dashed=1;" parent="1" edge="1">
          <mxGeometry width="50" height="50" relative="1" as="geometry">
            <mxPoint x="109" y="400" as="sourcePoint" />
            <mxPoint x="309" y="400" as="targetPoint" />
          </mxGeometry>
        </mxCell>
      </root>
    </mxGraphModel>
  </diagram>
</mxfile>
